<mxfile host="app.diagrams.net" modified="2021-07-01T01:38:13.713Z" agent="5.0 (Windows NT 10.0; Win64; x64) AppleWebKit/537.36 (KHTML, like Gecko) Chrome/91.0.4472.114 Safari/537.36" etag="XxzrjxjLckuJj62pjl7B" version="14.8.1" type="github">
  <diagram id="0WMoknnmAJuxtcJDk9xv" name="Page-1">
    <mxGraphModel dx="1385" dy="670" grid="1" gridSize="10" guides="1" tooltips="1" connect="1" arrows="1" fold="1" page="1" pageScale="1" pageWidth="827" pageHeight="1169" math="0" shadow="0">
      <root>
        <mxCell id="0" />
        <mxCell id="1" parent="0" />
        <mxCell id="feOKJJfrYuT6GGxcxlsI-6" style="edgeStyle=orthogonalEdgeStyle;rounded=0;orthogonalLoop=1;jettySize=auto;html=1;entryX=0;entryY=0.5;entryDx=0;entryDy=0;" edge="1" parent="1" source="feOKJJfrYuT6GGxcxlsI-1" target="feOKJJfrYuT6GGxcxlsI-2">
          <mxGeometry relative="1" as="geometry" />
        </mxCell>
        <mxCell id="feOKJJfrYuT6GGxcxlsI-1" value="&lt;font face=&quot;Times New Roman&quot; style=&quot;font-size: 14px&quot;&gt;Thu thập dữ liệu&amp;nbsp;&lt;/font&gt;" style="rounded=1;whiteSpace=wrap;html=1;fillColor=#66FFFF;" vertex="1" parent="1">
          <mxGeometry x="60" y="220" width="110" height="80" as="geometry" />
        </mxCell>
        <mxCell id="feOKJJfrYuT6GGxcxlsI-7" style="edgeStyle=orthogonalEdgeStyle;rounded=0;orthogonalLoop=1;jettySize=auto;html=1;" edge="1" parent="1" source="feOKJJfrYuT6GGxcxlsI-2" target="feOKJJfrYuT6GGxcxlsI-3">
          <mxGeometry relative="1" as="geometry" />
        </mxCell>
        <mxCell id="feOKJJfrYuT6GGxcxlsI-2" value="&lt;font face=&quot;Times New Roman&quot; style=&quot;font-size: 14px&quot;&gt;Tiền xử lý&lt;/font&gt;" style="rounded=1;whiteSpace=wrap;html=1;fillColor=#99FF99;" vertex="1" parent="1">
          <mxGeometry x="230" y="220" width="110" height="80" as="geometry" />
        </mxCell>
        <mxCell id="feOKJJfrYuT6GGxcxlsI-8" style="edgeStyle=orthogonalEdgeStyle;rounded=0;orthogonalLoop=1;jettySize=auto;html=1;" edge="1" parent="1" source="feOKJJfrYuT6GGxcxlsI-3" target="feOKJJfrYuT6GGxcxlsI-4">
          <mxGeometry relative="1" as="geometry" />
        </mxCell>
        <mxCell id="feOKJJfrYuT6GGxcxlsI-3" value="&lt;font style=&quot;font-size: 14px&quot; face=&quot;Times New Roman&quot;&gt;Huấn luyện mô hình&lt;/font&gt;" style="rounded=1;whiteSpace=wrap;html=1;fillColor=#99CCFF;" vertex="1" parent="1">
          <mxGeometry x="400" y="220" width="110" height="80" as="geometry" />
        </mxCell>
        <mxCell id="feOKJJfrYuT6GGxcxlsI-9" style="edgeStyle=orthogonalEdgeStyle;rounded=0;orthogonalLoop=1;jettySize=auto;html=1;entryX=0;entryY=0.5;entryDx=0;entryDy=0;" edge="1" parent="1" source="feOKJJfrYuT6GGxcxlsI-4" target="feOKJJfrYuT6GGxcxlsI-5">
          <mxGeometry relative="1" as="geometry" />
        </mxCell>
        <mxCell id="feOKJJfrYuT6GGxcxlsI-4" value="&lt;font face=&quot;Times New Roman&quot; style=&quot;font-size: 14px&quot;&gt;Đánh giá mô hình&lt;/font&gt;" style="rounded=1;whiteSpace=wrap;html=1;fillColor=#FFE6CC;" vertex="1" parent="1">
          <mxGeometry x="560" y="220" width="110" height="80" as="geometry" />
        </mxCell>
        <mxCell id="feOKJJfrYuT6GGxcxlsI-5" value="&lt;font style=&quot;font-size: 14px&quot; face=&quot;Times New Roman&quot;&gt;Cải thiện mô hình&lt;/font&gt;" style="rounded=1;whiteSpace=wrap;html=1;" vertex="1" parent="1">
          <mxGeometry x="730" y="220" width="110" height="80" as="geometry" />
        </mxCell>
      </root>
    </mxGraphModel>
  </diagram>
</mxfile>
